<?xml version="1.0" encoding="UTF-8" standalone="no"?>
<!DOCTYPE svg PUBLIC "-//W3C//DTD SVG 1.1//EN" "http://www.w3.org/Graphics/SVG/1.1/DTD/svg11.dtd">
<svg width="100%" height="100%" viewBox="0 0 859 585" version="1.1" xmlns="http://www.w3.org/2000/svg" xmlns:xlink="http://www.w3.org/1999/xlink" xml:space="preserve" xmlns:serif="http://www.serif.com/" style="fill-rule:evenodd;clip-rule:evenodd;stroke-linejoin:round;stroke-miterlimit:2;">
    <g id="Artboard1" transform="matrix(0.695547,0,0,0.689858,0,0)">
        <rect x="0" y="0" width="1235" height="848" style="fill:none;"/>
        <g transform="matrix(1.437718,0,0,1.449573,-255.913853,-197.14188)">
            <path d="M590.66,474.5C584.05,483.85 577.48,493.13 576.07,495.11L573.49,498.73L553,487.06C492.57,452.65 484.43,448.19 483.64,449.07C483.25,449.51 484.44,460.78 485.51,466.75C485.84,468.62 485.67,470 485.1,470C484.56,470 474.53,464.08 462.81,456.84C451.09,449.61 430.7,437.09 417.5,429.04C404.3,420.98 381.46,407.01 366.75,397.99L340,381.58L340,281.5L366.25,262.33C380.69,251.78 398.58,238.63 406,233.11L419.5,223.06L518.44,223.03L617.37,223L614.82,225.75C613.42,227.26 600.26,244.14 585.59,263.25L558.9,298L435.33,298L412.01,314.5L412.01,320.25C412,324.21 411.61,326 410.74,326C410.04,326 405.88,324.85 401.49,323.44C380.52,316.73 357.55,309.98 356.68,310.27C356.15,310.45 358.37,312.2 361.61,314.15C375.57,322.58 405.56,340.92 432.26,357.36C448.08,367.1 461.7,375.33 462.51,375.64C463.79,376.13 464,374.06 464,361.11C464,352.8 464.2,346 464.43,346C464.67,346 483.46,357.22 506.18,370.93C528.91,384.63 562.79,405.07 581.47,416.33C600.15,427.59 615.59,437.28 615.78,437.85C615.97,438.41 613.1,443.07 609.4,448.19C605.7,453.31 597.26,465.15 590.66,474.5ZM839.31,605.81L816.12,623L719.06,623C649.61,623 622,622.69 622,621.91C622,620.88 651.29,583.73 669.83,561.25L678.28,551L801.5,550.93L824.5,534.35L824.79,526.62C825.05,519.88 825.3,518.96 826.79,519.4C837.54,522.63 879.78,534 880.95,533.98C882.37,533.97 873.18,527.67 862,520.99C859.53,519.51 839.28,507.14 817,493.5C794.72,479.86 775.71,468.49 774.75,468.23C773.13,467.8 773,469.05 773,484.49C773,499.72 772.85,501.16 771.33,500.57C769.41,499.84 758.48,493.58 728.5,476.06C701.47,460.26 670.94,442.45 644.5,427.05C632.95,420.32 623.11,414.44 622.63,413.99C622.15,413.53 628.83,402.7 637.54,389.83C662.79,352.51 664.05,350.8 665.87,351.5C667.47,352.11 680.26,359.19 728.9,386.39C742.31,393.9 753.39,399.92 753.5,399.77C753.61,399.62 753.04,393.96 752.24,387.2C751.43,380.43 751.02,374.65 751.31,374.35C751.61,374.05 760.55,379.08 771.18,385.53C781.81,391.97 802.2,404.34 816.5,413.01C830.8,421.69 854.65,436.21 869.5,445.3L896.5,461.82L897.02,562.82L879.76,575.72C870.27,582.82 852.06,596.36 839.31,605.81ZM619.87,384.21C611.11,395.6 603.62,405.09 603.22,405.31C602.58,405.66 542.06,370.48 540.46,368.82C539.84,368.17 544.43,361.98 582.23,312.5C591.47,300.4 610.61,275.34 624.77,256.81L650.5,223.11L792.86,223.06L935.23,223L933.77,225.25C930.49,230.31 868.12,333.86 866.69,336.62C865.19,339.54 864.6,339.73 841.32,344.91C828.22,347.82 807.83,352.37 796,355.02C784.17,357.67 774.33,359.67 774.13,359.46C773.92,359.26 775.02,356.93 776.55,354.3C779.11,349.92 805.33,307.55 808.77,302.25L810.23,300L747.36,300.05L684.5,300.09L672.5,315.74C653.73,340.21 647.01,348.96 641.19,356.5C638.22,360.35 628.62,372.82 619.87,384.21ZM599.31,606.25L585.96,623L444.98,623C348.47,623 304,622.67 304,621.96C304,621.4 304.62,619.93 305.38,618.71C306.14,617.5 321.51,591.75 339.52,561.5C357.54,531.25 372.35,506.4 372.44,506.28C372.63,506.03 411.98,497.67 439.5,492.05C449.95,489.92 459.78,487.85 461.34,487.45L464.19,486.74L462.5,489.99C461.58,491.78 453.4,505.61 444.34,520.72C435.28,535.82 427.62,548.82 427.33,549.59C426.87,550.79 435.91,551 489.14,550.98L551.5,550.95L568.5,529.29C611.4,474.62 635.18,445.81 637,446.29C639.63,446.98 697,481.33 697,482.22C697,482.63 688.11,494.16 677.25,507.84C666.39,521.53 652.78,538.73 647,546.08C635.31,560.96 619.35,581.08 599.31,606.25Z" style="fill:white;fill-rule:nonzero;"/>
        </g>
    </g>
</svg>
